<svg width="250" height="250" viewBox="0 0 250 250" fill="none" xmlns="http://www.w3.org/2000/svg">
<g clip-path="url(#clip0_1533_77)">
<path d="M0 35.7143C0 15.9898 15.9898 0 35.7143 0H214.286C234.01 0 250 15.9898 250 35.7143V214.286C250 234.01 234.01 250 214.286 250H35.7143C15.9898 250 0 234.01 0 214.286V35.7143Z" fill="#299D7C"/>
<path d="M136.061 86.1268V86.1126C135.449 86.1553 132.292 86.3402 125.265 86.3402C119.646 86.3402 115.706 86.1837 114.312 86.1126V86.1268C92.7061 85.1738 76.5903 81.4187 76.5903 76.9097C76.5903 72.4149 92.7203 68.6455 114.312 67.6925V82.3859C115.721 82.4855 119.774 82.7273 125.365 82.7273C132.078 82.7273 135.435 82.4428 136.061 82.3859V67.7067C157.625 68.6739 173.698 72.4291 173.698 76.9239C173.698 81.4187 157.61 85.1738 136.061 86.1411M136.061 66.1847V53.0417H166.145V33H84.2428V53.0417H114.327V66.1847C89.8755 67.3084 71.498 72.1446 71.498 77.948C71.498 83.7514 89.8897 88.5876 114.327 89.7255V131.857H136.075V89.7255C160.484 88.6018 178.833 83.7656 178.833 77.9622C178.833 72.173 160.484 67.3226 136.075 66.1989" fill="white"/>
<path d="M0 159H250V215C250 234.33 234.33 250 215 250H35C15.67 250 0 234.33 0 215V159Z" fill="#E43029"/>
<path d="M81.6202 226V192.199H68.6812V184.96H102.311V192.199H89.3722V226H81.6202Z" fill="white"/>
<path d="M106.891 226V184.96H124.219C124.618 184.96 125.15 184.979 125.815 185.017C126.499 185.036 127.107 185.093 127.639 185.188C130.09 185.568 132.095 186.375 133.653 187.61C135.23 188.845 136.389 190.403 137.13 192.284C137.871 194.146 138.241 196.227 138.241 198.526C138.241 201.965 137.386 204.91 135.676 207.361C133.966 209.793 131.287 211.294 127.639 211.864L124.219 212.092H114.643V226H106.891ZM130.033 226L121.939 209.299L129.919 207.76L138.811 226H130.033ZM114.643 204.853H123.877C124.276 204.853 124.713 204.834 125.188 204.796C125.663 204.758 126.1 204.682 126.499 204.568C127.544 204.283 128.352 203.808 128.922 203.143C129.492 202.459 129.881 201.708 130.09 200.891C130.318 200.055 130.432 199.267 130.432 198.526C130.432 197.785 130.318 197.006 130.09 196.189C129.881 195.353 129.492 194.602 128.922 193.937C128.352 193.253 127.544 192.769 126.499 192.484C126.1 192.37 125.663 192.294 125.188 192.256C124.713 192.218 124.276 192.199 123.877 192.199H114.643V204.853Z" fill="white"/>
<path d="M160.964 226.855C156.86 226.855 153.317 225.962 150.334 224.176C147.37 222.39 145.08 219.891 143.465 216.68C141.869 213.469 141.071 209.736 141.071 205.48C141.071 201.224 141.869 197.49 143.465 194.279C145.08 191.068 147.37 188.57 150.334 186.784C153.317 184.998 156.86 184.105 160.964 184.105C165.676 184.105 169.628 185.273 172.82 187.61C176.031 189.947 178.292 193.111 179.603 197.101L171.794 199.267C171.034 196.778 169.752 194.849 167.947 193.481C166.142 192.094 163.814 191.401 160.964 191.401C158.361 191.401 156.186 191.98 154.438 193.139C152.709 194.298 151.407 195.932 150.533 198.041C149.659 200.15 149.222 202.63 149.222 205.48C149.222 208.33 149.659 210.809 150.533 212.918C151.407 215.027 152.709 216.661 154.438 217.82C156.186 218.979 158.361 219.559 160.964 219.559C163.814 219.559 166.142 218.865 167.947 217.478C169.752 216.091 171.034 214.163 171.794 211.693L179.603 213.859C178.292 217.849 176.031 221.012 172.82 223.349C169.628 225.686 165.676 226.855 160.964 226.855Z" fill="white"/>
</g>
<defs>
<clipPath id="clip0_1533_77">
<rect width="250" height="250" fill="white"/>
</clipPath>
</defs>
</svg>
