<svg width="250" height="250" viewBox="0 0 250 250" fill="none" xmlns="http://www.w3.org/2000/svg">
<g clip-path="url(#clip0_1533_83)">
<path d="M0 35.7143C0 15.9898 15.9898 0 35.7143 0H214.286C234.01 0 250 15.9898 250 35.7143V214.286C250 234.01 234.01 250 214.286 250H35.7143C15.9898 250 0 234.01 0 214.286V35.7143Z" fill="#299D7C"/>
<path d="M136.061 86.1268V86.1126C135.449 86.1553 132.292 86.3402 125.265 86.3402C119.646 86.3402 115.706 86.1837 114.312 86.1126V86.1268C92.7061 85.1738 76.5903 81.4187 76.5903 76.9097C76.5903 72.4149 92.7203 68.6455 114.312 67.6925V82.3859C115.721 82.4855 119.774 82.7273 125.365 82.7273C132.078 82.7273 135.435 82.4428 136.061 82.3859V67.7067C157.625 68.6739 173.698 72.4291 173.698 76.9239C173.698 81.4187 157.61 85.1738 136.061 86.1411M136.061 66.1847V53.0417H166.145V33H84.2428V53.0417H114.327V66.1847C89.8755 67.3084 71.498 72.1446 71.498 77.948C71.498 83.7514 89.8897 88.5876 114.327 89.7255V131.857H136.075V89.7255C160.484 88.6018 178.833 83.7656 178.833 77.9622C178.833 72.173 160.484 67.3226 136.075 66.1989" fill="white"/>
<path d="M0 159H250V215C250 234.33 234.33 250 215 250H35C15.67 250 0 234.33 0 215V159Z" fill="#1A223E"/>
<path d="M72.686 226V184.96H99.476V192.199H80.438V200.977H96.056V208.216H80.438V218.761H99.476V226H72.686Z" fill="white"/>
<path d="M106.307 226V184.96H123.635C124.034 184.96 124.566 184.979 125.231 185.017C125.915 185.036 126.523 185.093 127.055 185.188C129.506 185.568 131.511 186.375 133.069 187.61C134.646 188.845 135.805 190.403 136.546 192.284C137.287 194.146 137.657 196.227 137.657 198.526C137.657 201.965 136.802 204.91 135.092 207.361C133.382 209.793 130.703 211.294 127.055 211.864L123.635 212.092H114.059V226H106.307ZM129.449 226L121.355 209.299L129.335 207.76L138.227 226H129.449ZM114.059 204.853H123.293C123.692 204.853 124.129 204.834 124.604 204.796C125.079 204.758 125.516 204.682 125.915 204.568C126.96 204.283 127.768 203.808 128.338 203.143C128.908 202.459 129.297 201.708 129.506 200.891C129.734 200.055 129.848 199.267 129.848 198.526C129.848 197.785 129.734 197.006 129.506 196.189C129.297 195.353 128.908 194.602 128.338 193.937C127.768 193.253 126.96 192.769 125.915 192.484C125.516 192.37 125.079 192.294 124.604 192.256C124.129 192.218 123.692 192.199 123.293 192.199H114.059V204.853Z" fill="white"/>
<path d="M160.38 226.855C156.276 226.855 152.733 225.962 149.75 224.176C146.786 222.39 144.496 219.891 142.881 216.68C141.285 213.469 140.487 209.736 140.487 205.48C140.487 201.224 141.285 197.49 142.881 194.279C144.496 191.068 146.786 188.57 149.75 186.784C152.733 184.998 156.276 184.105 160.38 184.105C165.092 184.105 169.044 185.273 172.236 187.61C175.447 189.947 177.708 193.111 179.019 197.101L171.21 199.267C170.45 196.778 169.168 194.849 167.363 193.481C165.558 192.094 163.23 191.401 160.38 191.401C157.777 191.401 155.602 191.98 153.854 193.139C152.125 194.298 150.823 195.932 149.949 198.041C149.075 200.15 148.638 202.63 148.638 205.48C148.638 208.33 149.075 210.809 149.949 212.918C150.823 215.027 152.125 216.661 153.854 217.82C155.602 218.979 157.777 219.559 160.38 219.559C163.23 219.559 165.558 218.865 167.363 217.478C169.168 216.091 170.45 214.163 171.21 211.693L179.019 213.859C177.708 217.849 175.447 221.012 172.236 223.349C169.044 225.686 165.092 226.855 160.38 226.855Z" fill="white"/>
</g>
<defs>
<clipPath id="clip0_1533_83">
<rect width="250" height="250" fill="white"/>
</clipPath>
</defs>
</svg>
